# xmcd
#
# Track frame offsets: 
#        150
#        22528
#        49431
#        61990
#        80893
#        100829
#        126408
#        142895
#        162533
#        180582
#        211110
#        220836
#
# Disc length: 3258 seconds
#
# Revision: 8
# Processed by: cddbd v1.5.2PL0 Copyright (c) Steve Scherf et al.
# Submitted via: ExactAudioCopy v0.95b3
#
DISCID=a70cb80c
DTITLE=Alison Krauss and Union Station - Live
DYEAR=2002
DGENRE=Bluegrass
TTITLE0=A Tribute To Peador O'Donnell/Monkey Let The Hogs Out
TTITLE1=The Boy Who Wouldn't Hoe Corn
TTITLE2=Take Me For Longing
TTITLE3=I Am A Man Of Constant Sorrow
TTITLE4=Maybe
TTITLE5=We Hide and Seek
TTITLE6=But You Know I Love You
TTITLE7=When You Say Nothing At All
TTITLE8=New Favorite
TTITLE9=Oh, Atlanta
TTITLE10=Down To The River To Pray
TTITLE11=There Is A Reason
EXTD=
EXTT0=
EXTT1=
EXTT2=
EXTT3=
EXTT4=
EXTT5=
EXTT6=
EXTT7=
EXTT8=
EXTT9=
EXTT10=
EXTT11=
PLAYORDER=
